<mxfile host="app.diagrams.net" modified="2023-06-09T06:16:47.634Z" agent="Mozilla/5.0 (Windows NT 10.0; Win64; x64) AppleWebKit/537.36 (KHTML, like Gecko) Chrome/114.0.0.0 Safari/537.36" version="21.3.8" etag="O2U87Xjcu-PgB0i66lWO" type="github">
  <diagram name="Page-1" id="dcOWR9dqF0uzOKAIcyQn">
    <mxGraphModel>
      <root>
        <mxCell id="0" />
        <mxCell id="1" parent="0" />
      </root>
    </mxGraphModel>
  </diagram>
</mxfile>
